# xmcd
#
# Track frame offsets: 
#        150
#        14090
#        34632
#        51704
#        70437
#        89562
#        106798
#        123257
#        135483
#        150583
#        165420
#        178180
#        192110
#        210493
#
# Disc length: 3061 seconds
#
# Revision: 0
# Processed by: cddbd v1.5.1PL0 Copyright (c) Steve Scherf et al.
# Submitted via: ExactAudioCopy v0.95a4
#
DISCID=c00bf30e
DTITLE=Nanci Griffith - Hearts In Mind
DYEAR=2005
DGENRE=Country
TTITLE0=Simple Life
TTITLE1=Angels
TTITLE2=Heart Of Indochine
TTITLE3=Beautiful
TTITLE4=Back When Ted Loved Sylvia
TTITLE5=Mountain Of Sorrow
TTITLE6=Old Hanoi
TTITLE7=Before
TTITLE8=I Love This Town
TTITLE9=Rise To The Occasion
TTITLE10=Love Conquers All
TTITLE11=Last Train Home
TTITLE12=Big Blue Ball Of War
TTITLE13=Our Very Own (Bonus Track)
EXTD=
EXTT0=
EXTT1=
EXTT2=
EXTT3=
EXTT4=
EXTT5=
EXTT6=
EXTT7=
EXTT8=
EXTT9=
EXTT10=
EXTT11=
EXTT12=
EXTT13=
PLAYORDER=
